<mxfile host="65bd71144e">
    <diagram id="jvfyqs50eir2aMu6LTPA" name="Page-1">
        <mxGraphModel dx="788" dy="1089" grid="1" gridSize="10" guides="1" tooltips="1" connect="1" arrows="1" fold="1" page="1" pageScale="1" pageWidth="850" pageHeight="1100" math="0" shadow="0">
            <root>
                <mxCell id="0"/>
                <mxCell id="1" parent="0"/>
                <mxCell id="2" value="TCP/IP" style="rounded=0;whiteSpace=wrap;html=1;fillColor=#a0522d;fontColor=#ffffff;strokeColor=#6D1F00;" parent="1" vertex="1">
                    <mxGeometry x="180" y="640" width="510" height="60" as="geometry"/>
                </mxCell>
                <mxCell id="3" value="JDK Java 基础 IO 编程 / 网络编程" style="rounded=0;whiteSpace=wrap;html=1;fillColor=#76608a;fontColor=#ffffff;strokeColor=#432D57;" parent="1" vertex="1">
                    <mxGeometry x="180" y="580" width="440" height="60" as="geometry"/>
                </mxCell>
                <mxCell id="4" value="NIO" style="rounded=0;whiteSpace=wrap;html=1;fillColor=#6d8764;fontColor=#ffffff;strokeColor=#3A5431;" parent="1" vertex="1">
                    <mxGeometry x="180" y="520" width="370" height="60" as="geometry"/>
                </mxCell>
                <mxCell id="5" value="Netty" style="rounded=0;whiteSpace=wrap;html=1;fillColor=#f0a30a;fontColor=#000000;strokeColor=#BD7000;" parent="1" vertex="1">
                    <mxGeometry x="180" y="460" width="260" height="60" as="geometry"/>
                </mxCell>
            </root>
        </mxGraphModel>
    </diagram>
</mxfile>